<svg xmlns="http://www.w3.org/2000/svg" enable-background="new 0 0 24 24" viewBox="0 0 24 24"><path fill="#FFF" d="M8.564,23.5c-0.089,0-0.187-0.008-0.292-0.028C3.299,21.855,0,17.363,0,12.279C0,5.784,5.383,0.5,12,0.5s12,5.284,12,11.779c0,5.091-3.312,9.577-8.24,11.162c-0.569,0.113-0.893-0.044-1.073-0.193c-0.235-0.194-0.37-0.493-0.37-0.819l0.004-0.624c0.004-0.579,0.011-1.456,0.011-2.465c0-1.114-0.458-1.586-0.598-1.704c-0.153-0.129-0.215-0.337-0.157-0.528c0.059-0.192,0.226-0.33,0.425-0.352c2.374-0.257,4.801-1.061,4.801-5.067c0-1.036-0.352-1.939-1.045-2.687c-0.132-0.142-0.17-0.348-0.097-0.528c0.101-0.25,0.379-1.116-0.011-2.321c-0.356,0.028-1.172,0.202-2.511,1.096c-0.12,0.08-0.271,0.104-0.409,0.066c-1.77-0.483-3.718-0.483-5.487,0C9.104,7.354,8.955,7.332,8.833,7.25c-1.341-0.889-2.16-1.066-2.528-1.093C5.883,7.466,6.255,8.353,6.302,8.456C6.386,8.64,6.35,8.857,6.212,9.004C5.516,9.75,5.163,10.653,5.163,11.69c0,4.008,2.423,4.815,4.793,5.077c0.198,0.022,0.364,0.159,0.423,0.35c0.059,0.19,0,0.397-0.152,0.527c-0.166,0.142-0.458,0.487-0.559,1.2c-0.024,0.171-0.136,0.318-0.294,0.388c-0.614,0.27-2.717,0.983-3.98-1.141c-0.004-0.007-0.088-0.151-0.246-0.323c0.197,0.268,0.4,0.614,0.577,1.054c0.036,0.107,0.622,1.785,3.306,1.21c0.149-0.032,0.301,0.006,0.417,0.1c0.117,0.094,0.186,0.236,0.187,0.387l0.014,1.92c0,0.325-0.135,0.624-0.371,0.819C9.136,23.376,8.905,23.5,8.564,23.5z M12,1.5C5.935,1.5,1,6.335,1,12.279c0,4.65,3.021,8.759,7.518,10.226c0.054,0.008,0.11-0.01,0.121-0.017l0.005-0.623L8.639,21.11c-3.092,0.374-3.848-1.931-3.856-1.956c-0.417-1.032-0.994-1.333-1.019-1.346c-0.281-0.183-0.865-0.574-0.698-1.11c0.15-0.484,0.765-0.528,1.001-0.526c1.437,0.098,2.162,1.364,2.192,1.417c0.701,1.177,1.77,1.066,2.471,0.82c0.062-0.279,0.152-0.538,0.269-0.77c-2.281-0.406-4.836-1.62-4.836-5.951c0-1.192,0.374-2.246,1.112-3.134C5.111,8.017,4.92,6.907,5.483,5.493c0.055-0.14,0.171-0.247,0.314-0.292c0.194-0.059,1.246-0.284,3.4,1.093c1.807-0.452,3.769-0.452,5.574,0c2.143-1.377,3.193-1.153,3.386-1.093c0.144,0.045,0.259,0.152,0.314,0.292c0.549,1.38,0.378,2.494,0.216,3.057c0.739,0.892,1.113,1.946,1.113,3.14c0,4.329-2.556,5.539-4.839,5.942c0.239,0.476,0.369,1.063,0.369,1.709c0,1.013-0.006,1.892-0.011,2.473l-0.004,0.616c0.017,0.054,0.078,0.069,0.197,0.044C19.967,21.038,23,16.935,23,12.279C23,6.335,18.065,1.5,12,1.5z"/></svg>