<svg xmlns="http://www.w3.org/2000/svg" enable-background="new 0 0 24 24" viewBox="0 0 24 24"><path fill="#e53935" d="m23.469 5.929.03.196c-.497-1.764-2.189-2.178-2.089-2.117-2.435-.661-16.298-.686-18.799 0-1.741.504-2.147 2.217-2.089 2.117-.678 3.539-.726 7.916.03 11.947l-.03-.198c.497 1.765 2.189 2.178 2.089 2.117 2.468.672 16.296.673 18.799 0 1.016-.294 1.799-1.088 2.084-2.096.292-2.119.506-2.616.506-6.12 0-1.997-.182-3.951-.531-5.846z"/><path fill="#c7322e" d="m11.979 3.5c-.526 0-7.55.009-9.368.508-1.741.504-2.147 2.217-2.089 2.117-.666 3.477-.741 7.835.03 11.947l-.03-.198c.497 1.765 2.189 2.178 2.089 2.117 1.827.498 9.072.509 9.389.509v-17c-.005 0-.012 0-.021 0z"/><path fill="#fff" d="m9.607 15.651v-7.293l6.267 3.652z"/><path fill="#dedede" d="m15.856 12h-6.249v3.651l6.267-3.641z"/></svg>