<svg xmlns="http://www.w3.org/2000/svg" viewBox="0 0 24 24"><path fill="#e53935" d="m23.469 5.929.03.196c-.497-1.764-2.189-2.178-2.089-2.117-2.435-.661-16.298-.686-18.799 0C.87 4.512.464 6.225.522 6.125c-.678 3.539-.726 7.916.03 11.947l-.03-.198c.497 1.765 2.189 2.178 2.089 2.117 2.468.672 16.296.673 18.799 0a3.042 3.042 0 0 0 2.084-2.096c.292-2.119.506-2.616.506-6.12 0-1.997-.182-3.951-.531-5.846z"/><path fill="#c7322e" d="M11.979 3.5c-.526 0-7.55.009-9.368.508C.87 4.512.464 6.225.522 6.125c-.666 3.477-.741 7.835.03 11.947l-.03-.198c.497 1.765 2.189 2.178 2.089 2.117 1.827.498 9.072.509 9.389.509v-17h-.021z"/><path fill="#fff" d="M9.607 15.651V8.358l6.267 3.652z"/><path fill="#dedede" d="M15.856 12H9.607v3.651l6.267-3.641z"/></svg>